<svg xmlns="http://www.w3.org/2000/svg" fill="none" viewBox="0.5 0 64 64"><g clip-path="url(#a)"><path fill="#7A67E5" d="M52.527 0H12.463C5.856 0 .5 5.356.5 11.963v40.064c0 6.607 5.356 11.963 11.963 11.963h40.064c6.607 0 11.963-5.356 11.963-11.963V11.963C64.49 5.356 59.134 0 52.527 0Z"/><path fill="#fff" d="M38.14 14.071H18.396v5.976h19.746c1.558 0 2.82 1.338 2.82 2.988v2.989h-13.93c-4.77 0-8.636 4.081-8.636 9.116V49.93h5.642V35.876l14.278 14.052h8.29L28.388 32h12.574v-5.947h5.643v-3.018c0-4.95-3.79-8.964-8.464-8.964Z"/></g><defs><clipPath id="a"><path fill="#fff" d="M.5 0h64v64H.5z"/></clipPath></defs></svg>