<svg xmlns="http://www.w3.org/2000/svg" viewBox="0 0 500 500"><g id="freepik--Shadows--inject-22"><ellipse id="freepik--Shadow--inject-22" cx="79.91" cy="335.22" rx="47.36" ry="27.34" style="fill:#e0e0e0"></ellipse><ellipse id="freepik--shadow--inject-22" cx="421.13" cy="335.22" rx="47.36" ry="27.34" style="fill:#e0e0e0"></ellipse><ellipse id="freepik--shadow--inject-22" cx="250.33" cy="358.68" rx="144.42" ry="83.38" style="fill:#e0e0e0"></ellipse></g><g id="freepik--Plants--inject-22"><g id="freepik--plants--inject-22"><path d="M58.16,303.59c.88-7.24-2.53-22.88-8.89-33.19s-17.34-18.64-26.08-16.79c-8.15,1.72-8.55,12.08.1,20s21.87,18.22,24.61,30.47l7,15.48Z" style="fill:#FF725E"></path><g style="opacity:0.15"><path d="M58.16,303.59c.88-7.24-2.53-22.88-8.89-33.19s-17.34-18.64-26.08-16.79c-8.15,1.72-8.55,12.08.1,20s21.87,18.22,24.61,30.47l7,15.48Z"></path></g><path d="M57.48,313.56a.53.53,0,0,1-.42-.48c-1.84-25.31-19.38-47.84-30.8-53.73a.53.53,0,0,1-.23-.72.53.53,0,0,1,.72-.23c11.64,6,29.51,28.91,31.37,54.6a.54.54,0,0,1-.49.57Z" style="fill:#fff"></path><path d="M51.87,328.93c-.67-4.21-4.82-11.53-12.18-18.06-8.15-7.22-19.06-11.42-21.07-16.51-2.42-6.12,3.08-10.95,12.08-8.7s23.54,16.67,23.82,35.75Z" style="fill:#FF725E"></path><path d="M54.16,324.87a.54.54,0,0,1-.42-.4c-5-22.1-20.24-31.5-27.6-33.38a.54.54,0,0,1-.39-.65.53.53,0,0,1,.65-.39c8.14,2.09,23.28,11.63,28.38,34.18a.52.52,0,0,1-.4.64A.41.41,0,0,1,54.16,324.87Z" style="fill:#fff"></path></g><g id="freepik--plants--inject-22"><path d="M442.36,304.79s-.85-13.12,3.74-24.25,12.26-18.93,20.34-21.06,16.06,4.23,8.22,11S452.2,285.32,448.51,306Z" style="fill:#FF725E"></path><g style="opacity:0.15"><path d="M442.36,304.79s-.85-13.12,3.74-24.25,12.26-18.93,20.34-21.06,16.06,4.23,8.22,11S452.2,285.32,448.51,306Z"></path></g><path d="M444.16,301h-.09a.45.45,0,0,1-.34-.53c4.81-22.86,19.67-34.72,26.86-37.8a.45.45,0,1,1,.35.82c-7,3-21.61,14.66-26.34,37.16A.46.46,0,0,1,444.16,301Z" style="fill:#fff"></path><path d="M483.93,289.76c-.4,1.71-2,2.86-3.44,3.81s-3.08,2-3.66,3.62c-1.17,3.34,2.5,7,1.19,10.32a5.48,5.48,0,0,1-3.27,2.83,36,36,0,0,1-3.55,1,15.13,15.13,0,0,1-1.75.2,7.88,7.88,0,0,0-4.87,1.48c-2.14,1.8-2.3,5-3.3,7.57a11.57,11.57,0,0,1-7.09,6.59c-2.65.87-6.83,1-7.76,0-.7-.82.36-3.87.19-4.93a43.72,43.72,0,0,1-.51-8.24,15.74,15.74,0,0,0-.18-3.76c-.28-1.38-.54-2.77-.8-4.16s-.85-2.61-.6-4.22a15.55,15.55,0,0,1,1.59-4.38c.68-1.38,1.36-2.75,2.06-4.12a21.69,21.69,0,0,1,2.88-4.58,11.53,11.53,0,0,1,8.3-3.87c2.6-.06,5.33.89,7.91.27s4.85-1.75,7.47-2.06a9.18,9.18,0,0,1,7.69,2.31A4.88,4.88,0,0,1,483.93,289.76Z" style="fill:#FF725E"></path><path d="M447.38,320h0a.39.39,0,0,1-.36-.42c1.78-24.76,26-32.91,31.85-33.6a.41.41,0,0,1,.44.35.39.39,0,0,1-.35.43c-5.76.68-29.41,8.65-31.15,32.88A.41.41,0,0,1,447.38,320Z" style="fill:#fff"></path><path d="M472.68,302.81a.44.44,0,0,1-.22-.07,21,21,0,0,0-17.81-1.54.39.39,0,0,1-.5-.24.4.4,0,0,1,.24-.5,21.76,21.76,0,0,1,18.51,1.63.39.39,0,0,1-.22.72Z" style="fill:#fff"></path></g></g><g id="freepik--pie-chart--inject-22"><g id="freepik--pie-chart--inject-22"><path d="M250.13,275.24l-89.75-51.81c38-21.66,97.65-28.14,146.85-13.61,60.78,18,90.19,63.87,60.88,99.64Z" style="fill:#FF725E"></path><polygon points="250.13 275.24 250.13 346.73 368.11 380.94 368.11 309.46 250.13 275.24" style="fill:#FF725E"></polygon><polygon points="250.13 275.24 250.13 346.73 368.11 380.94 368.11 309.46 250.13 275.24" style="opacity:0.15"></polygon><polygon points="160.38 223.43 160.38 294.91 250.13 346.73 250.13 275.24 160.38 223.43" style="fill:#FF725E"></polygon><polygon points="160.38 223.43 160.38 294.91 250.13 346.73 250.13 275.24 160.38 223.43" style="opacity:0.2"></polygon><path d="M368.11,380.94c7.8-9.52,11.44-19.76,11.44-30V279.46c0,10.24-3.64,20.48-11.44,30Z" style="fill:#FF725E"></path><path d="M368.11,380.94c7.8-9.52,11.44-19.76,11.44-30V279.46c0,10.24-3.64,20.48-11.44,30Z" style="opacity:0.30000000000000004"></path><path d="M342.29,341.54a177.64,177.64,0,0,1-29.74,13.52l-51.44-58.33L362.06,326.4A91.48,91.48,0,0,1,342.29,341.54Z" style="fill:#455a64"></path><polygon points="261.11 296.73 261.11 358.37 312.55 416.69 312.55 355.06 261.11 296.73" style="fill:#263238"></polygon><path d="M312.55,416.69a176.85,176.85,0,0,0,29.74-13.52A91.48,91.48,0,0,0,362.06,388V326.4a91.48,91.48,0,0,1-19.77,15.14,177.64,177.64,0,0,1-29.74,13.52Z" style="fill:#37474f"></path><path d="M182,375.09c-9.72-3.19-17.66-7.86-26-12.58-42.24-24-49-73.19-4.64-101.57l86.94,49.95Z" style="fill:#FF725E"></path><path d="M182,375.09c-9.72-3.19-17.66-7.86-26-12.58-42.24-24-49-73.19-4.64-101.57l86.94,49.95Z" style="opacity:0.30000000000000004"></path><polygon points="238.35 310.89 182.02 375.09 182.02 414.72 238.35 350.52 238.35 310.89" style="fill:#FF725E"></polygon><polygon points="238.35 310.89 182.02 375.09 182.02 414.72 238.35 350.52 238.35 310.89" style="opacity:0.5"></polygon><path d="M182,414.72c-9.72-3.19-17.66-7.86-26-12.58-22.5-12.78-34.94-32.71-34.94-52.83V309.46c0,20.12,12.44,40.05,34.94,52.83,8.31,4.72,16.25,9.39,26,12.58Z" style="fill:#FF725E"></path><path d="M182,414.72c-9.72-3.19-17.66-7.86-26-12.58-22.5-12.78-34.94-32.71-34.94-52.83V309.46c0,20.12,12.44,40.05,34.94,52.83,8.31,4.72,16.25,9.39,26,12.58Z" style="opacity:0.4"></path><path d="M300.94,392.72C267.48,402,226.61,400.28,193,391l53.28-60.28Z" style="fill:#FF725E"></path><path d="M300.94,392.72C267.48,402,226.61,400.28,193,391l53.28-60.28Z" style="fill:#fff;opacity:0.7000000000000001"></path><path d="M193,418.33c33.62,9.27,74.49,11,108,1.71V392.72C267.48,402,226.61,400.28,193,391Z" style="fill:#FF725E"></path><path d="M193,418.33c33.62,9.27,74.49,11,108,1.71V392.72C267.48,402,226.61,400.28,193,391Z" style="fill:#fff;opacity:0.5"></path></g><g id="freepik--Line--inject-22"><circle cx="172.9" cy="317.89" r="4.84" style="fill:#263238"></circle><path d="M172.9,318.49a.62.62,0,0,1-.32-.09L119.83,285h-14a.6.6,0,0,1,0-1.2H120a.58.58,0,0,1,.32.1l52.9,33.52a.59.59,0,0,1,.18.82A.58.58,0,0,1,172.9,318.49Z" style="fill:#263238"></path></g><g id="freepik--line--inject-22"><path d="M304.67,322.83a4.84,4.84,0,1,0,4.84-4.84A4.84,4.84,0,0,0,304.67,322.83Z" style="fill:#263238"></path><path d="M309.51,323.43a.6.6,0,0,1-.52-.3.59.59,0,0,1,.22-.81l58.07-33.53a.6.6,0,0,1,.29-.08h22.72a.6.6,0,0,1,.6.6.59.59,0,0,1-.6.59H367.73L309.8,323.35A.6.6,0,0,1,309.51,323.43Z" style="fill:#263238"></path></g></g><g id="freepik--percentage-signs--inject-22"><g id="freepik--percentage-box--inject-22"><path d="M379.13,85.84,339.05,62.7a3,3,0,0,0-3.08-.29l-12.15,7a3,3,0,0,0-1.29,2.81v41.59a9.56,9.56,0,0,0,4.34,7.5L367,144.49a3,3,0,0,0,3.06.3c.78-.45,11.39-6.6,12.17-7a3,3,0,0,0,1.28-2.81V93.34A9.58,9.58,0,0,0,379.13,85.84Z" style="fill:#37474f"></path><path d="M383.47,93.34v41.6a3,3,0,0,1-1.28,2.81l-12.09,7a3.12,3.12,0,0,0,1.17-2.75v-41.6A8.77,8.77,0,0,0,370,96.13l12.2-7A8.84,8.84,0,0,1,383.47,93.34Z" style="fill:#263238"></path><path d="M326.87,121.34,367,144.49c2.39,1.38,4.33.26,4.33-2.5v-41.6a9.58,9.58,0,0,0-4.33-7.5L326.86,69.75c-2.39-1.38-4.33-.26-4.33,2.5v41.59A9.56,9.56,0,0,0,326.87,121.34Z" style="fill:#455a64"></path><path d="M352.79,94.24a1.2,1.2,0,0,1,.47-.42.8.8,0,0,1,.68.15l2.23,1.26a1.55,1.55,0,0,1,.56.6,1.71,1.71,0,0,1,.21.83,1.24,1.24,0,0,1,0,.23,1.17,1.17,0,0,1-.09.24L341,120a1.27,1.27,0,0,1-.46.42.82.82,0,0,1-.69-.15L337.64,119a1.37,1.37,0,0,1-.55-.59,1.73,1.73,0,0,1-.21-.83,1,1,0,0,1,0-.23.64.64,0,0,1,.1-.24Z" style="fill:#fafafa"></path><path d="M360.21,121.1a13,13,0,0,0-1.47-5.59,9.54,9.54,0,0,0-3.71-3.89c-1.58-.91-2.81-1-3.71-.4s-1.38,2-1.47,3.9q-.06,1.35-.06,2.4c0,.71,0,1.5.06,2.38a13.07,13.07,0,0,0,1.55,5.59,9.63,9.63,0,0,0,3.63,3.84c1.49.86,2.7,1,3.63.35s1.44-1.9,1.55-3.8c0-.83.06-1.6.06-2.3S360.25,122.05,360.21,121.1Zm-3.8,3.23a4,4,0,0,1-.36,1.62c-.2.36-.54.4-1,.13a2.28,2.28,0,0,1-1-1.31,7.58,7.58,0,0,1-.36-2c-.1-2.49-.1-3.83,0-6a3.87,3.87,0,0,1,.36-1.61c.2-.37.54-.41,1-.14a2.31,2.31,0,0,1,1,1.31,7.66,7.66,0,0,1,.36,2A55.13,55.13,0,0,1,356.41,124.33Z" style="fill:#fafafa"></path><path d="M344,94.44a13,13,0,0,0-1.47-5.6A9.54,9.54,0,0,0,338.78,85c-1.58-.91-2.81-1-3.71-.39s-1.38,2-1.47,3.9q-.06,1.33-.06,2.4c0,.7,0,1.5.06,2.37a13.12,13.12,0,0,0,1.55,5.6,9.63,9.63,0,0,0,3.63,3.84c1.49.86,2.7,1,3.63.35s1.44-1.9,1.55-3.81c0-.83.06-1.59.06-2.3S344,95.38,344,94.44Zm-3.8,3.23a3.87,3.87,0,0,1-.36,1.61c-.2.37-.54.41-1,.14a2.39,2.39,0,0,1-1-1.31,7.35,7.35,0,0,1-.35-2,55.06,55.06,0,0,1,0-6,3.82,3.82,0,0,1,.35-1.62c.21-.36.55-.41,1-.13a2.24,2.24,0,0,1,1,1.31,7.58,7.58,0,0,1,.36,2A55.13,55.13,0,0,1,340.16,97.67Z" style="fill:#fafafa"></path></g><g id="freepik--percentage-box--inject-22"><path d="M120.87,85.84,161,62.7a3,3,0,0,1,3.08-.29l12.15,7a3,3,0,0,1,1.29,2.81v41.59a9.56,9.56,0,0,1-4.34,7.5l-40.08,23.15a3,3,0,0,1-3.06.3c-.78-.45-11.39-6.6-12.17-7a3,3,0,0,1-1.28-2.81V93.34A9.58,9.58,0,0,1,120.87,85.84Z" style="fill:#37474f"></path><path d="M116.53,93.34v41.6a3,3,0,0,0,1.28,2.81l12.09,7a3.12,3.12,0,0,1-1.17-2.75v-41.6A8.77,8.77,0,0,1,130,96.13l-12.2-7A8.84,8.84,0,0,0,116.53,93.34Z" style="fill:#263238"></path><path d="M173.13,121.34l-40.08,23.15c-2.39,1.38-4.33.26-4.33-2.5v-41.6a9.58,9.58,0,0,1,4.33-7.5l40.09-23.14c2.39-1.38,4.33-.26,4.33,2.5v41.59A9.56,9.56,0,0,1,173.13,121.34Z" style="fill:#455a64"></path><path d="M159,87.44a6.18,6.18,0,0,1,.46-1,1.86,1.86,0,0,1,.69-.64l2.22-1.31c.24-.13.42-.15.56,0a.69.69,0,0,1,.21.59,1.57,1.57,0,0,1,0,.27,2.68,2.68,0,0,1-.1.35l-15.79,41.1a6.18,6.18,0,0,1-.46,1,1.94,1.94,0,0,1-.69.64l-2.22,1.3c-.24.14-.42.16-.56.06a.7.7,0,0,1-.21-.6,1.58,1.58,0,0,1,0-.26,2.68,2.68,0,0,1,.1-.35Z" style="fill:#fafafa"></path><path d="M167.15,105.28q-.14-2.93-1.47-3.9t-3.71.4a9.51,9.51,0,0,0-3.71,3.88,12.76,12.76,0,0,0-1.47,5.6c0,.94-.06,1.77-.06,2.47s0,1.48.06,2.3c.11,1.91.62,3.18,1.55,3.81s2.14.51,3.63-.35a9.63,9.63,0,0,0,3.63-3.84,13.12,13.12,0,0,0,1.55-5.6q.06-1.3.06-2.37T167.15,105.28Zm-3.81,7.62a7.29,7.29,0,0,1-.35,2,2.36,2.36,0,0,1-1,1.31c-.48.27-.82.23-1-.14a3.87,3.87,0,0,1-.36-1.61,55.13,55.13,0,0,1,0-6,7.58,7.58,0,0,1,.36-2,2.28,2.28,0,0,1,1-1.31c.47-.28.81-.23,1,.13a3.82,3.82,0,0,1,.35,1.62A55.06,55.06,0,0,1,163.34,112.9Z" style="fill:#fafafa"></path><path d="M149.14,98.27q-.12-2.92-1.47-3.9t-3.71.39a9.58,9.58,0,0,0-3.7,3.89,12.76,12.76,0,0,0-1.47,5.6c0,.94-.07,1.76-.07,2.47s0,1.47.07,2.3c.1,1.91.62,3.17,1.55,3.8s2.13.52,3.62-.34a9.66,9.66,0,0,0,3.63-3.85,12.89,12.89,0,0,0,1.55-5.59c0-.88.07-1.67.07-2.37S149.18,99.16,149.14,98.27Zm-3.8,7.61a7.58,7.58,0,0,1-.36,2,2.24,2.24,0,0,1-1,1.31c-.47.28-.81.23-1-.13a3.59,3.59,0,0,1-.36-1.62,55.13,55.13,0,0,1,0-6,6.86,6.86,0,0,1,.36-2,2.27,2.27,0,0,1,1-1.31c.48-.28.82-.23,1,.13a3.91,3.91,0,0,1,.36,1.61A55.06,55.06,0,0,1,145.34,105.88Z" style="fill:#fafafa"></path></g></g></svg>